<svg width="333" height="141" viewBox="0 0 333 141" fill="none" xmlns="http://www.w3.org/2000/svg">
<path d="M28.9405 60.378C23.8877 60.378 19.5291 59.3592 15.8647 57.3218C12.2231 55.2633 9.41218 52.3942 7.432 48.7144C5.47462 45.013 4.49593 40.7095 4.49593 35.8027C4.49593 30.896 5.47462 26.5714 7.432 22.8289C9.41218 19.0657 12.1661 16.1341 15.694 14.0342C19.2446 11.9134 23.3869 10.8531 28.1211 10.8531C30.8523 10.8531 33.5495 11.2689 36.2124 12.1006C38.8754 12.9322 41.2993 14.2836 43.4843 16.1549C45.6692 18.0053 47.4104 20.4587 48.7077 23.515C50.0051 26.5714 50.6538 30.3346 50.6538 34.8048V37.9235H10.2315V31.5613H42.4601C42.4601 28.8584 41.8683 26.4466 40.6848 24.3259C39.524 22.2052 37.8625 20.5315 35.7002 19.3048C33.5608 18.0781 31.0344 17.4647 28.1211 17.4647C24.9119 17.4647 22.1351 18.1924 19.7908 19.6479C17.4692 21.0825 15.6826 22.9536 14.4308 25.2615C13.179 27.5693 12.5531 30.0435 12.5531 32.6841V36.9255C12.5531 40.5432 13.2359 43.6099 14.6015 46.1257C15.9899 48.6205 17.9131 50.5229 20.3712 51.8328C22.8293 53.1218 25.6858 53.7663 28.9405 53.7663C31.0571 53.7663 32.9691 53.4961 34.6761 52.9556C36.4058 52.3942 37.8967 51.5626 39.1485 50.4608C40.4003 49.338 41.3676 47.945 42.0504 46.2817L49.8344 48.2774C49.015 50.6891 47.638 52.8104 45.7034 54.6398C43.7688 56.4489 41.379 57.8622 38.5339 58.881C35.6888 59.8794 32.491 60.378 28.9405 60.378ZM70.9673 30.5634V59.3802H62.9102V11.4768H70.6942V18.9618H71.377C72.6061 16.5291 74.4723 14.5747 76.9764 13.0986C79.4797 11.6016 82.7114 10.8531 86.6716 10.8531C90.2221 10.8531 93.3289 11.5184 95.992 12.8491C98.6551 14.1589 100.726 16.1549 102.206 18.837C103.685 21.4983 104.425 24.8665 104.425 28.9416V59.3802H96.3677V29.4406C96.3677 25.6774 95.2983 22.7458 93.1588 20.6458C91.0194 18.5251 88.0827 17.4647 84.3503 17.4647C81.7782 17.4647 79.4797 17.9742 77.4541 18.9929C75.4514 20.0117 73.8696 21.4983 72.7084 23.4527C71.5477 25.4071 70.9673 27.7773 70.9673 30.5634ZM141.954 11.4768V17.7143H114.778V11.4768H141.954ZM122.699 0H130.756V45.6582C130.756 47.7369 131.086 49.2961 131.745 50.3358C132.429 51.3545 133.293 52.0409 134.341 52.3942C135.41 52.7273 136.537 52.8935 137.72 52.8935C138.608 52.8935 139.336 52.8516 139.906 52.7685C140.474 52.6644 140.93 52.5813 141.271 52.5192L142.909 59.1309C142.364 59.318 141.601 59.5052 140.622 59.6923C139.644 59.8997 138.404 60.0037 136.901 60.0037C134.625 60.0037 132.395 59.5572 130.209 58.6627C128.047 57.769 126.249 56.407 124.815 54.5776C123.404 52.7475 122.699 50.4398 122.699 47.6538V0ZM154.074 59.3802V11.4768H161.858V18.7122H162.404C163.36 16.342 165.09 14.4188 167.593 12.9426C170.097 11.4664 172.919 10.7283 176.06 10.7283C176.651 10.7283 177.392 10.7387 178.279 10.7595C179.167 10.7803 179.838 10.8115 180.294 10.8531V18.338C180.02 18.2756 179.394 18.182 178.416 18.0573C177.46 17.9117 176.447 17.839 175.377 17.839C172.828 17.839 170.552 18.3276 168.549 19.3048C166.569 20.2612 164.999 21.5919 163.838 23.2968C162.699 24.9809 162.131 26.904 162.131 29.0663V59.3802H154.074ZM222.892 39.7947V11.4768H230.95V59.3802H222.892V51.2714H222.346C221.117 53.7041 219.205 55.7727 216.61 57.4778C214.016 59.162 210.738 60.0037 206.778 60.0037C203.5 60.0037 200.587 59.3491 198.038 58.0392C195.489 56.7083 193.486 54.7127 192.029 52.051C190.572 49.3691 189.844 45.9906 189.844 41.9156V11.4768H197.901V41.4164C197.901 44.9097 198.971 47.6957 201.111 49.7744C203.272 51.8538 206.026 52.8935 209.373 52.8935C211.376 52.8935 213.412 52.4253 215.484 51.4896C217.577 50.554 219.33 49.1198 220.741 47.1863C222.175 45.2522 222.892 42.7884 222.892 39.7947ZM282.851 22.2052L275.614 24.0764C275.158 22.9745 274.487 21.9037 273.599 20.8641C272.735 19.8038 271.551 18.9305 270.049 18.2445C268.547 17.5583 266.623 17.2152 264.279 17.2152C261.07 17.2152 258.395 17.891 256.256 19.2424C254.139 20.573 253.081 22.2675 253.081 24.3259C253.081 26.1555 253.809 27.6006 255.266 28.6609C256.722 29.7213 258.999 30.6049 262.093 31.3118L269.878 33.0583C274.566 34.0979 278.06 35.6884 280.359 37.8299C282.658 39.9506 283.807 42.6844 283.807 46.0318C283.807 48.7766 282.942 51.2302 281.213 53.392C279.506 55.5545 277.116 57.2596 274.043 58.5067C270.97 59.7544 267.397 60.378 263.323 60.378C257.974 60.378 253.547 59.318 250.042 57.1968C246.537 55.0762 244.318 51.9788 243.385 47.9031L251.032 46.1568C251.761 48.7347 253.138 50.6688 255.163 51.9578C257.212 53.2468 259.886 53.8913 263.187 53.8913C266.942 53.8913 269.924 53.1637 272.131 51.7078C274.362 50.2317 275.477 48.4645 275.477 46.4061C275.477 44.7428 274.839 43.3498 273.565 42.227C272.29 41.0838 270.333 40.2313 267.693 39.67L258.953 37.7987C254.15 36.7592 250.623 35.1478 248.369 32.9647C246.139 30.7608 245.024 28.006 245.024 24.7002C245.024 21.9973 245.854 19.6062 247.516 17.5271C249.2 15.448 251.488 13.8159 254.378 12.6307C257.292 11.4456 260.592 10.8531 264.279 10.8531C269.468 10.8531 273.542 11.8926 276.501 13.9718C279.483 16.0509 281.599 18.7954 282.851 22.2052ZM318.741 11.4768V17.7143H291.565V11.4768H318.741ZM299.486 0H307.543V45.6582C307.543 47.7369 307.874 49.2961 308.533 50.3358C309.216 51.3545 310.081 52.0409 311.128 52.3942C312.198 52.7273 313.325 52.8935 314.508 52.8935C315.395 52.8935 316.124 52.8516 316.693 52.7685C317.262 52.6644 317.717 52.5813 318.058 52.5192L319.697 59.1309C319.151 59.318 318.388 59.5052 317.41 59.6923C316.431 59.8997 315.191 60.0037 313.689 60.0037C311.412 60.0037 309.182 59.5572 306.997 58.6627C304.835 57.769 303.037 56.407 301.603 54.5776C300.192 52.7475 299.486 50.4398 299.486 47.6538V0ZM12.9585 132.156C10.8072 132.156 8.90789 131.66 7.2608 130.667C5.61363 129.664 4.32505 128.252 3.39503 126.43C2.46501 124.597 2 122.432 2 119.935C2 117.458 2.46501 115.308 3.39503 113.486C4.32505 111.664 5.61923 110.257 7.27759 109.264C8.93592 108.271 10.852 107.775 13.0258 107.775C14.7065 107.775 16.0343 108.031 17.0092 108.543C17.9952 109.044 18.746 109.618 19.2614 110.262C19.7881 110.897 20.197 111.419 20.4883 111.828H20.8245V100.221H24.7911V131.665H20.959V128.041H20.4883C20.197 128.472 19.7824 129.014 19.2446 129.669C18.7067 130.314 17.9392 130.892 16.942 131.404C15.9447 131.906 14.6169 132.156 12.9585 132.156ZM13.4964 128.901C15.0875 128.901 16.4321 128.522 17.5302 127.765C18.6283 126.998 19.4631 125.938 20.0345 124.587C20.606 123.226 20.8917 121.655 20.8917 119.873C20.8917 118.113 20.6116 116.572 20.0513 115.252C19.4911 113.922 18.6619 112.888 17.5638 112.151C16.4657 111.404 15.1099 111.03 13.4964 111.03C11.8157 111.03 10.415 111.424 9.29452 112.212C8.18522 112.99 7.35043 114.049 6.79016 115.39C6.24112 116.721 5.96659 118.215 5.96659 119.873C5.96659 121.552 6.24671 123.077 6.80697 124.449C7.37846 125.81 8.21879 126.895 9.32809 127.704C10.4486 128.502 11.8381 128.901 13.4964 128.901ZM43.4307 132.156C40.9432 132.156 38.7974 131.655 36.9934 130.652C35.2006 129.638 33.8168 128.226 32.8419 126.414C31.8783 124.592 31.3964 122.473 31.3964 120.058C31.3964 117.642 31.8783 115.513 32.8419 113.671C33.8168 111.818 35.1726 110.375 36.9094 109.341C38.6573 108.297 40.6967 107.775 43.0273 107.775C44.3719 107.775 45.6997 107.979 47.0107 108.389C48.3217 108.799 49.515 109.464 50.5908 110.385C51.6664 111.296 52.5236 112.504 53.1623 114.009C53.801 115.513 54.1203 117.366 54.1203 119.567V121.102H34.2201V117.969H50.0865C50.0865 116.639 49.7952 115.452 49.2125 114.408C48.641 113.364 47.823 112.539 46.7586 111.935C45.7053 111.332 44.4616 111.03 43.0273 111.03C41.4474 111.03 40.0804 111.388 38.9262 112.104C37.7834 112.811 36.9038 113.732 36.2875 114.868C35.6712 116.004 35.3631 117.222 35.3631 118.522V120.61C35.3631 122.392 35.6992 123.902 36.3715 125.14C37.055 126.368 38.0018 127.304 39.212 127.95C40.4222 128.584 41.8284 128.901 43.4307 128.901C44.4727 128.901 45.414 128.768 46.2543 128.502C47.106 128.226 47.8399 127.816 48.4562 127.274C49.0724 126.721 49.5487 126.036 49.8848 125.217L53.7169 126.199C53.3136 127.387 52.6356 128.431 51.6832 129.331C50.7308 130.222 49.5543 130.918 48.1536 131.419C46.753 131.911 45.1787 132.156 43.4307 132.156ZM64.1208 100.221V131.665H60.1543V100.221H64.1208ZM71.3859 131.665V108.082H75.3523V131.665H71.3859ZM73.4029 104.152C72.6297 104.152 71.963 103.911 71.4027 103.43C70.8537 102.948 70.5792 102.37 70.5792 101.695C70.5792 101.019 70.8537 100.441 71.4027 99.9597C71.963 99.4787 72.6297 99.2382 73.4029 99.2382C74.1757 99.2382 74.8369 99.4787 75.3864 99.9597C75.9462 100.441 76.2265 101.019 76.2265 101.695C76.2265 102.37 75.9462 102.948 75.3864 103.43C74.8369 103.911 74.1757 104.152 73.4029 104.152ZM103.728 108.082L94.1809 131.665H90.1475L80.6008 108.082H84.9034L92.0296 126.875H92.2988L99.4249 108.082H103.728ZM118.863 132.156C116.376 132.156 114.23 131.655 112.426 130.652C110.633 129.638 109.249 128.226 108.274 126.414C107.311 124.592 106.829 122.473 106.829 120.058C106.829 117.642 107.311 115.513 108.274 113.671C109.249 111.818 110.605 110.375 112.342 109.341C114.09 108.297 116.129 107.775 118.46 107.775C119.804 107.775 121.132 107.979 122.443 108.389C123.754 108.799 124.948 109.464 126.023 110.385C127.099 111.296 127.956 112.504 128.595 114.009C129.233 115.513 129.553 117.366 129.553 119.567V121.102H109.653V117.969H125.519C125.519 116.639 125.228 115.452 124.645 114.408C124.074 113.364 123.256 112.539 122.191 111.935C121.138 111.332 119.894 111.03 118.46 111.03C116.88 111.03 115.513 111.388 114.359 112.104C113.216 112.811 112.336 113.732 111.72 114.868C111.104 116.004 110.795 117.222 110.795 118.522V120.61C110.795 122.392 111.132 123.902 111.804 125.14C112.487 126.368 113.435 127.304 114.645 127.95C115.854 128.584 117.261 128.901 118.863 128.901C119.906 128.901 120.846 128.768 121.687 128.502C122.538 128.226 123.273 127.816 123.889 127.274C124.505 126.721 124.981 126.036 125.317 125.217L129.15 126.199C128.746 127.387 128.068 128.431 127.116 129.331C126.163 130.222 124.987 130.918 123.586 131.419C122.186 131.911 120.611 132.156 118.863 132.156ZM135.587 131.665V108.082H139.419V111.644H139.688C140.158 110.477 141.01 109.53 142.242 108.803C143.475 108.077 144.865 107.713 146.41 107.713C146.702 107.713 147.066 107.719 147.503 107.729C147.941 107.739 148.271 107.754 148.495 107.775V111.46C148.361 111.429 148.052 111.383 147.571 111.321C147.1 111.25 146.601 111.214 146.075 111.214C144.82 111.214 143.699 111.454 142.713 111.935C141.738 112.406 140.965 113.062 140.394 113.901C139.834 114.73 139.553 115.677 139.553 116.741V131.665H135.587ZM153.197 131.665V108.082H157.163V131.665H153.197ZM155.214 104.152C154.44 104.152 153.774 103.911 153.213 103.43C152.665 102.948 152.39 102.37 152.39 101.695C152.39 101.019 152.665 100.441 153.213 99.9597C153.774 99.4787 154.44 99.2382 155.214 99.2382C155.987 99.2382 156.648 99.4787 157.197 99.9597C157.757 100.441 158.037 101.019 158.037 101.695C158.037 102.37 157.757 102.948 157.197 103.43C156.648 103.911 155.987 104.152 155.214 104.152ZM168.395 117.478V131.665H164.428V108.082H168.261V111.766H168.596C169.202 110.569 170.121 109.607 171.353 108.881C172.586 108.143 174.177 107.775 176.126 107.775C177.875 107.775 179.404 108.102 180.715 108.758C182.026 109.402 183.045 110.385 183.774 111.706C184.502 113.016 184.866 114.673 184.866 116.68V131.665H180.9V116.926C180.9 115.073 180.374 113.63 179.32 112.596C178.267 111.552 176.822 111.03 174.984 111.03C173.718 111.03 172.586 111.281 171.589 111.782C170.603 112.284 169.824 113.016 169.252 113.978C168.681 114.94 168.395 116.107 168.395 117.478ZM202.536 141C200.62 141 198.972 140.775 197.594 140.324C196.216 139.885 195.067 139.301 194.149 138.574C193.241 137.858 192.518 137.09 191.981 136.271L195.141 134.244C195.498 134.675 195.953 135.166 196.501 135.718C197.051 136.281 197.801 136.768 198.754 137.177C199.718 137.597 200.978 137.807 202.536 137.807C204.62 137.807 206.339 137.346 207.696 136.424C209.051 135.504 209.729 134.06 209.729 132.095V127.304H209.393C209.101 127.735 208.687 128.267 208.149 128.901C207.622 129.526 206.861 130.084 205.864 130.575C204.877 131.056 203.544 131.297 201.863 131.297C199.779 131.297 197.908 130.846 196.25 129.946C194.602 129.045 193.297 127.735 192.333 126.015C191.381 124.295 190.904 122.207 190.904 119.751C190.904 117.335 191.37 115.231 192.3 113.441C193.23 111.639 194.524 110.246 196.183 109.264C197.841 108.271 199.757 107.775 201.93 107.775C203.611 107.775 204.945 108.031 205.93 108.543C206.928 109.044 207.69 109.618 208.216 110.262C208.755 110.897 209.169 111.419 209.46 111.828H209.864V108.082H213.695V132.341C213.695 134.367 213.192 136.015 212.183 137.284C211.185 138.564 209.841 139.5 208.149 140.094C206.469 140.698 204.597 141 202.536 141ZM202.401 128.041C203.992 128.041 205.337 127.709 206.435 127.044C207.533 126.378 208.368 125.422 208.939 124.172C209.51 122.924 209.797 121.429 209.797 119.689C209.797 117.99 209.516 116.491 208.956 115.191C208.396 113.89 207.567 112.872 206.469 112.135C205.371 111.398 204.015 111.03 202.401 111.03C200.72 111.03 199.32 111.419 198.199 112.197C197.09 112.974 196.255 114.019 195.695 115.329C195.146 116.639 194.871 118.092 194.871 119.689C194.871 121.327 195.152 122.775 195.711 124.035C196.283 125.283 197.123 126.266 198.233 126.982C199.353 127.689 200.743 128.041 202.401 128.041ZM245.495 108.082V111.152H232.117V108.082H245.495ZM236.016 102.432H239.983V124.91C239.983 125.933 240.146 126.701 240.47 127.213C240.807 127.714 241.232 128.052 241.747 128.226C242.274 128.39 242.829 128.472 243.411 128.472C243.848 128.472 244.207 128.451 244.487 128.41C244.768 128.359 244.992 128.318 245.16 128.287L245.966 131.542C245.697 131.635 245.322 131.727 244.84 131.818C244.359 131.921 243.748 131.973 243.008 131.973C241.888 131.973 240.79 131.752 239.714 131.312C238.65 130.872 237.764 130.201 237.058 129.301C236.364 128.4 236.016 127.264 236.016 125.892V102.432ZM251.463 131.665V108.082H255.294V111.644H255.563C256.034 110.477 256.886 109.53 258.118 108.803C259.351 108.077 260.74 107.713 262.287 107.713C262.578 107.713 262.942 107.719 263.379 107.729C263.816 107.739 264.146 107.754 264.371 107.775V111.46C264.236 111.429 263.928 111.383 263.446 111.321C262.976 111.25 262.477 111.214 261.95 111.214C260.695 111.214 259.575 111.454 258.589 111.935C257.614 112.406 256.841 113.062 256.27 113.901C255.709 114.73 255.429 115.677 255.429 116.741V131.665H251.463ZM285.342 122.023V108.082H289.309V131.665H285.342V127.673H285.073C284.468 128.871 283.527 129.889 282.249 130.729C280.972 131.558 279.359 131.973 277.409 131.973C275.796 131.973 274.362 131.65 273.107 131.005C271.852 130.35 270.865 129.367 270.148 128.057C269.431 126.737 269.072 125.073 269.072 123.067V108.082H273.039V122.821C273.039 124.541 273.566 125.913 274.619 126.936C275.683 127.96 277.039 128.472 278.686 128.472C279.672 128.472 280.675 128.241 281.695 127.781C282.726 127.32 283.589 126.614 284.283 125.662C284.989 124.71 285.342 123.497 285.342 122.023ZM314.861 113.364L311.298 114.285C311.074 113.743 310.743 113.215 310.306 112.704C309.88 112.181 309.297 111.752 308.558 111.414C307.818 111.076 306.872 110.907 305.717 110.907C304.137 110.907 302.821 111.24 301.767 111.905C300.725 112.56 300.205 113.395 300.205 114.408C300.205 115.308 300.563 116.02 301.28 116.542C301.997 117.064 303.118 117.499 304.642 117.847L308.474 118.707C310.782 119.219 312.502 120.002 313.634 121.055C314.765 122.1 315.331 123.446 315.331 125.094C315.331 126.445 314.905 127.653 314.054 128.717C313.214 129.782 312.037 130.621 310.524 131.235C309.012 131.85 307.252 132.156 305.247 132.156C302.613 132.156 300.434 131.635 298.709 130.59C296.983 129.547 295.89 128.021 295.431 126.015L299.196 125.155C299.555 126.424 300.233 127.377 301.23 128.011C302.238 128.645 303.555 128.963 305.18 128.963C307.028 128.963 308.496 128.605 309.583 127.888C310.681 127.161 311.23 126.291 311.23 125.278C311.23 124.459 310.917 123.773 310.289 123.221C309.662 122.658 308.698 122.238 307.398 121.961L303.095 121.041C300.731 120.529 298.994 119.735 297.885 118.661C296.786 117.576 296.238 116.219 296.238 114.592C296.238 113.262 296.647 112.084 297.465 111.061C298.294 110.037 299.42 109.233 300.843 108.65C302.278 108.066 303.902 107.775 305.717 107.775C308.272 107.775 310.278 108.287 311.735 109.31C313.202 110.334 314.245 111.685 314.861 113.364ZM332.53 108.082V111.152H319.151V108.082H332.53ZM323.05 102.432H327.016V124.91C327.016 125.933 327.179 126.701 327.504 127.213C327.84 127.714 328.266 128.052 328.782 128.226C329.308 128.39 329.863 128.472 330.446 128.472C330.883 128.472 331.241 128.451 331.521 128.41C331.801 128.359 332.025 128.318 332.193 128.287L333 131.542C332.732 131.635 332.356 131.727 331.874 131.818C331.392 131.921 330.781 131.973 330.042 131.973C328.921 131.973 327.823 131.752 326.748 131.312C325.683 130.872 324.798 130.201 324.092 129.301C323.397 128.4 323.05 127.264 323.05 125.892V102.432Z" fill="#F8F4E3"/>
<path d="M0 77H324V83H0V77Z" fill="#F8F4E3"/>
</svg>
