<svg width="193" height="62" viewBox="0 0 193 62" fill="none" xmlns="http://www.w3.org/2000/svg">
<path d="M16.7733 26.5492C13.8448 26.5492 11.3187 26.1012 9.19487 25.2053C7.08426 24.3002 5.45513 23.0386 4.30746 21.4205C3.173 19.793 2.60577 17.9006 2.60577 15.743C2.60577 13.5855 3.173 11.6839 4.30746 10.0383C5.45513 8.38348 7.05126 7.09441 9.09594 6.17105C11.1538 5.23853 13.5546 4.77227 16.2984 4.77227C17.8814 4.77227 19.4446 4.95511 20.988 5.32082C22.5314 5.68652 23.9363 6.28075 25.2026 7.10356C26.469 7.91722 27.4781 8.99604 28.23 10.3399C28.982 11.6839 29.3579 13.3386 29.3579 15.3042V16.6756H5.92999V13.878H24.609C24.609 12.6895 24.266 11.629 23.5801 10.6965C22.9073 9.76398 21.9443 9.02803 20.6911 8.48864C19.4512 7.94925 17.9869 7.67952 16.2984 7.67952C14.4385 7.67952 12.8291 7.99951 11.4704 8.63948C10.1248 9.27031 9.08934 10.0931 8.36382 11.1079C7.6383 12.1227 7.27551 13.2106 7.27551 14.3717V16.2367C7.27551 17.8275 7.67126 19.176 8.46274 20.2822C9.26743 21.3792 10.3821 22.2157 11.8067 22.7917C13.2314 23.3585 14.887 23.6419 16.7733 23.6419C18.0001 23.6419 19.1082 23.5231 20.0976 23.2854C21.1001 23.0386 21.9641 22.6729 22.6897 22.1884C23.4152 21.6947 23.9758 21.0822 24.3716 20.3508L28.883 21.2283C28.4081 22.2888 27.61 23.2216 26.4888 24.026C25.3675 24.8215 23.9824 25.443 22.3335 25.8909C20.6845 26.33 18.8312 26.5492 16.7733 26.5492ZM41.1312 13.4392V26.1104H36.4615V5.04655H40.9729V8.33779H41.3687C42.081 7.26813 43.1626 6.40875 44.6139 5.75966C46.0648 5.10141 47.9379 4.77227 50.2331 4.77227C52.2909 4.77227 54.0916 5.06484 55.635 5.64995C57.1785 6.22591 58.379 7.10356 59.2363 8.28293C60.0939 9.45315 60.5226 10.9342 60.5226 12.7261V26.1104H55.8528V12.9455C55.8528 11.2908 55.233 10.0017 53.993 9.07829C52.753 8.14578 51.0509 7.67952 48.8877 7.67952C47.397 7.67952 46.0648 7.90353 44.8908 8.35149C43.7301 8.79948 42.8133 9.45315 42.1403 10.3125C41.4676 11.1719 41.1312 12.2141 41.1312 13.4392ZM82.2737 5.04655V7.78925H66.5228V5.04655H82.2737ZM71.1137 0H75.7835V20.0767C75.7835 20.9907 75.9747 21.6763 76.357 22.1335C76.7531 22.5814 77.2541 22.8832 77.861 23.0386C78.4808 23.185 79.134 23.2581 79.8198 23.2581C80.3342 23.2581 80.7563 23.2397 81.0864 23.2032C81.416 23.1574 81.68 23.1209 81.8776 23.0935L82.8274 26.0008C82.5111 26.0831 82.0692 26.1654 81.5017 26.2477C80.9347 26.3389 80.2159 26.3846 79.3449 26.3846C78.0261 26.3846 76.7333 26.1883 75.4668 25.795C74.2135 25.402 73.1715 24.8031 72.3404 23.9987C71.5226 23.1939 71.1137 22.1792 71.1137 20.9542V0ZM89.2979 26.1104V5.04655H93.8095V8.22806H94.1258C94.68 7.18585 95.6826 6.34019 97.1335 5.69107C98.5848 5.04197 100.22 4.71741 102.041 4.71741C102.384 4.71741 102.813 4.72198 103.327 4.73113C103.841 4.74028 104.231 4.75401 104.495 4.77227V8.06352C104.336 8.03608 103.973 7.99493 103.406 7.9401C102.852 7.87608 102.265 7.84409 101.645 7.84409C100.168 7.84409 98.8484 8.05895 97.6877 8.48864C96.5398 8.90918 95.6299 9.49429 94.9569 10.244C94.2973 10.9845 93.9677 11.8301 93.9677 12.7809V26.1104H89.2979ZM129.184 17.4984V5.04655H133.854V26.1104H129.184V22.5449H128.867C128.155 23.6146 127.047 24.5242 125.543 25.2739C124.039 26.0145 122.14 26.3846 119.844 26.3846C117.945 26.3846 116.256 26.0968 114.779 25.5208C113.301 24.9356 112.141 24.0581 111.296 22.8877C110.452 21.7084 110.03 20.2228 110.03 18.431V5.04655H114.7V18.2115C114.7 19.7475 115.32 20.9726 116.56 21.8866C117.813 22.8009 119.409 23.2581 121.348 23.2581C122.509 23.2581 123.689 23.0523 124.89 22.6408C126.103 22.2294 127.119 21.5988 127.937 20.7486C128.768 19.8981 129.184 18.8148 129.184 17.4984ZM163.935 9.76398L159.74 10.5868C159.476 10.1022 159.087 9.63141 158.573 9.1743C158.071 8.70804 157.385 8.32407 156.515 8.02238C155.644 7.72066 154.529 7.56982 153.171 7.56982C151.311 7.56982 149.761 7.86696 148.521 8.46119C147.294 9.0463 146.68 9.7914 146.68 10.6965C146.68 11.501 147.103 12.1364 147.947 12.6027C148.791 13.0689 150.11 13.4575 151.904 13.7683L156.416 14.5363C159.133 14.9934 161.158 15.6928 162.491 16.6344C163.823 17.5669 164.489 18.769 164.489 20.2409C164.489 21.4479 163.988 22.5268 162.985 23.4773C161.996 24.4282 160.611 25.178 158.83 25.7263C157.049 26.275 154.978 26.5492 152.616 26.5492C149.517 26.5492 146.951 26.0831 144.919 25.1504C142.888 24.2179 141.602 22.8559 141.061 21.0638L145.493 20.2959C145.915 21.4294 146.714 22.2799 147.887 22.8467C149.075 23.4135 150.625 23.6969 152.538 23.6969C154.714 23.6969 156.442 23.3769 157.722 22.7368C159.014 22.0877 159.661 21.3106 159.661 20.4055C159.661 19.6741 159.291 19.0616 158.553 18.5679C157.814 18.0652 156.68 17.6904 155.15 17.4435L150.084 16.6207C147.3 16.1636 145.256 15.4551 143.95 14.4951C142.657 13.526 142.011 12.3147 142.011 10.8611C142.011 9.67255 142.492 8.62118 143.455 7.70697C144.432 6.79272 145.757 6.07507 147.432 5.55394C149.121 5.03282 151.034 4.77227 153.171 4.77227C156.178 4.77227 158.54 5.22938 160.254 6.14363C161.983 7.05784 163.209 8.26463 163.935 9.76398ZM184.736 5.04655V7.78925H168.985V5.04655H184.736ZM173.576 0H178.246V20.0767C178.246 20.9907 178.437 21.6763 178.82 22.1335C179.215 22.5814 179.717 22.8832 180.324 23.0386C180.943 23.185 181.597 23.2581 182.282 23.2581C182.797 23.2581 183.219 23.2397 183.549 23.2032C183.879 23.1574 184.142 23.1209 184.34 23.0935L185.29 26.0008C184.973 26.0831 184.531 26.1654 183.964 26.2477C183.397 26.3389 182.678 26.3846 181.808 26.3846C180.488 26.3846 179.195 26.1883 177.929 25.795C176.676 25.402 175.634 24.8031 174.803 23.9987C173.985 23.1939 173.576 22.1792 173.576 20.9542V0ZM7.51052 58.1113C6.26363 58.1113 5.16285 57.8929 4.20823 57.4566C3.25357 57.0154 2.50673 56.3943 1.96771 55.5931C1.42869 54.7875 1.15918 53.8355 1.15918 52.7372C1.15918 51.6482 1.42869 50.703 1.96771 49.9019C2.50673 49.1007 3.25681 48.4819 4.21796 48.0453C5.1791 47.6086 6.2896 47.3903 7.54949 47.3903C8.52361 47.3903 9.29319 47.5028 9.8582 47.728C10.4297 47.9484 10.8648 48.2006 11.1635 48.484C11.4688 48.7632 11.7058 48.9926 11.8746 49.1726H12.0695V44.0689H14.3684V57.8953H12.1474V56.3019H11.8746C11.7058 56.4911 11.4655 56.7297 11.1538 57.0175C10.842 57.3012 10.3972 57.5555 9.81924 57.7806C9.24124 58.001 8.47166 58.1113 7.51052 58.1113ZM7.82226 56.68C8.74443 56.68 9.52375 56.5134 10.1602 56.1804C10.7966 55.8429 11.2804 55.3772 11.6116 54.7831C11.9428 54.1845 12.1084 53.4935 12.1084 52.7102C12.1084 51.9361 11.9461 51.2588 11.6214 50.6784C11.2966 50.0932 10.8161 49.6387 10.1797 49.3146C9.54321 48.986 8.75742 48.8218 7.82226 48.8218C6.84814 48.8218 6.03633 48.9949 5.38693 49.3416C4.74401 49.6835 4.26018 50.1493 3.93546 50.739C3.61724 51.3242 3.45813 51.9812 3.45813 52.7102C3.45813 53.4484 3.62049 54.1191 3.9452 54.7222C4.27642 55.3207 4.76346 55.7978 5.40639 56.1534C6.05584 56.5045 6.86112 56.68 7.82226 56.68ZM25.1716 58.1113C23.7298 58.1113 22.4862 57.8908 21.4406 57.4497C20.4016 57.0041 19.5995 56.383 19.0345 55.5863C18.476 54.7851 18.1968 53.8536 18.1968 52.7913C18.1968 51.729 18.476 50.793 19.0345 49.9829C19.5995 49.1681 20.3853 48.5336 21.3919 48.0791C22.405 47.6199 23.587 47.3903 24.9378 47.3903C25.7171 47.3903 26.4866 47.4803 27.2465 47.6603C28.0063 47.8406 28.6979 48.1329 29.3214 48.5381C29.9448 48.9385 30.4416 49.4696 30.8118 50.1315C31.182 50.793 31.3671 51.6075 31.3671 52.5753V53.2506H19.8333V51.8731H29.0292C29.0292 51.2882 28.8603 50.766 28.5226 50.307C28.1914 49.8478 27.7173 49.4854 27.1004 49.2198C26.4899 48.9545 25.769 48.8218 24.9378 48.8218C24.0221 48.8218 23.2298 48.9792 22.5609 49.2941C21.8985 49.6048 21.3887 50.01 21.0315 50.5093C20.6743 51.009 20.4957 51.5446 20.4957 52.1161V53.0343C20.4957 53.8176 20.6905 54.4815 21.0802 55.026C21.4763 55.5661 22.0251 55.9778 22.7265 56.2615C23.4279 56.5404 24.2429 56.68 25.1716 56.68C25.7755 56.68 26.3211 56.6215 26.8081 56.5045C27.3017 56.383 27.7271 56.203 28.0842 55.9644C28.4414 55.7215 28.7174 55.4199 28.9122 55.0599L31.1332 55.4918C30.8995 56.014 30.5066 56.473 29.9545 56.869C29.4026 57.2608 28.7207 57.5668 27.9089 57.7872C27.0971 58.0034 26.1847 58.1113 25.1716 58.1113ZM37.1631 44.0689V57.8953H34.8642V44.0689H37.1631ZM41.3738 57.8953V47.5254H43.6727V57.8953H41.3738ZM42.5428 45.7971C42.0947 45.7971 41.7083 45.6914 41.3836 45.4799C41.0654 45.2681 40.9063 45.0138 40.9063 44.7168C40.9063 44.4197 41.0654 44.1654 41.3836 43.9539C41.7083 43.7424 42.0947 43.6367 42.5428 43.6367C42.9908 43.6367 43.3739 43.7424 43.6924 43.9539C44.0169 44.1654 44.1793 44.4197 44.1793 44.7168C44.1793 45.0138 44.0169 45.2681 43.6924 45.4799C43.3739 45.6914 42.9908 45.7971 42.5428 45.7971ZM60.1188 47.5254L54.5853 57.8953H52.2476L46.7146 47.5254H49.2083L53.3385 55.7889H53.4945L57.6247 47.5254H60.1188ZM68.8905 58.1113C67.449 58.1113 66.2052 57.8908 65.1598 57.4497C64.1208 57.0041 63.3184 56.383 62.7535 55.5863C62.195 54.7851 61.916 53.8536 61.916 52.7913C61.916 51.729 62.195 50.793 62.7535 49.9829C63.3184 49.1681 64.1045 48.5336 65.1109 48.0791C66.1242 47.6199 67.3059 47.3903 68.6569 47.3903C69.4361 47.3903 70.2059 47.4803 70.9654 47.6603C71.7254 47.8406 72.4172 48.1329 73.0404 48.5381C73.664 48.9385 74.1608 49.4696 74.5311 50.1315C74.901 50.793 75.0862 51.6075 75.0862 52.5753V53.2506H63.5525V51.8731H72.748C72.748 51.2882 72.5796 50.766 72.2418 50.307C71.9105 49.8478 71.4365 49.4854 70.8193 49.2198C70.2089 48.9545 69.488 48.8218 68.6569 48.8218C67.7413 48.8218 66.9488 48.9792 66.2802 49.2941C65.6175 49.6048 65.1079 50.01 64.7505 50.5093C64.3934 51.009 64.2147 51.5446 64.2147 52.1161V53.0343C64.2147 53.8176 64.4097 54.4815 64.7993 55.026C65.1954 55.5661 65.7444 55.9778 66.4456 56.2615C67.1469 56.5404 67.9621 56.68 68.8905 56.68C69.4948 56.68 70.04 56.6215 70.5274 56.5045C71.0207 56.383 71.4463 56.203 71.8034 55.9644C72.1604 55.7215 72.4364 55.4199 72.6315 55.0599L74.8526 55.4918C74.6185 56.014 74.2255 56.473 73.6739 56.869C73.1218 57.2608 72.4399 57.5668 71.6281 57.7872C70.8163 58.0034 69.9037 58.1113 68.8905 58.1113ZM78.5833 57.8953V47.5254H80.8044V49.0918H80.9604C81.233 48.5785 81.7263 48.1623 82.4408 47.8427C83.1553 47.523 83.9607 47.3632 84.8565 47.3632C85.0254 47.3632 85.2367 47.3656 85.49 47.37C85.7433 47.3745 85.9349 47.3813 86.0648 47.3903V49.0107C85.9868 48.997 85.8081 48.9768 85.529 48.9498C85.256 48.9183 84.9671 48.9026 84.6619 48.9026C83.9346 48.9026 83.2852 49.0083 82.7134 49.2198C82.1485 49.4269 81.7006 49.715 81.3693 50.0842C81.0448 50.4487 80.8824 50.8649 80.8824 51.3331V57.8953H78.5833ZM88.79 57.8953V47.5254H91.0886V57.8953H88.79ZM89.9588 45.7971C89.5105 45.7971 89.1243 45.6914 88.7994 45.4799C88.4814 45.2681 88.3223 45.0138 88.3223 44.7168C88.3223 44.4197 88.4814 44.1654 88.7994 43.9539C89.1243 43.7424 89.5105 43.6367 89.9588 43.6367C90.4067 43.6367 90.7899 43.7424 91.1084 43.9539C91.4328 44.1654 91.5953 44.4197 91.5953 44.7168C91.5953 45.0138 91.4328 45.2681 91.1084 45.4799C90.7899 45.6914 90.4067 45.7971 89.9588 45.7971ZM97.5985 51.6571V57.8953H95.2994V47.5254H97.5205V49.1455H97.7151C98.0661 48.6192 98.5985 48.1959 99.313 47.8765C100.027 47.5524 100.949 47.3903 102.079 47.3903C103.093 47.3903 103.979 47.5343 104.739 47.8225C105.499 48.1059 106.089 48.5381 106.512 49.1188C106.934 49.6948 107.145 50.4238 107.145 51.306V57.8953H104.846V51.4142C104.846 50.5993 104.541 49.9648 103.93 49.5103C103.32 49.0511 102.482 48.8218 101.417 48.8218C100.683 48.8218 100.027 48.932 99.4493 49.1524C98.8779 49.3731 98.4266 49.6948 98.0953 50.1178C97.7639 50.5408 97.5985 51.0541 97.5985 51.6571ZM117.386 62C116.275 62 115.32 61.9011 114.522 61.7029C113.723 61.5096 113.057 61.2529 112.525 60.9333C111.998 60.6184 111.58 60.2807 111.268 59.9206L113.099 59.0295C113.307 59.2187 113.57 59.4346 113.888 59.6776C114.207 59.9251 114.642 60.139 115.194 60.319C115.752 60.5034 116.483 60.5958 117.386 60.5958C118.594 60.5958 119.59 60.3932 120.376 59.988C121.162 59.5832 121.555 58.9484 121.555 58.0842V55.9778H121.36C121.191 56.167 120.951 56.4011 120.639 56.68C120.334 56.9545 119.892 57.1999 119.314 57.4159C118.743 57.6274 117.97 57.7334 116.996 57.7334C115.788 57.7334 114.703 57.5353 113.742 57.1393C112.787 56.743 112.031 56.167 111.472 55.4107C110.92 54.6547 110.644 53.7365 110.644 52.6564C110.644 51.5942 110.914 50.6691 111.453 49.8816C111.992 49.0894 112.742 48.4772 113.703 48.0453C114.664 47.6086 115.775 47.3903 117.035 47.3903C118.009 47.3903 118.782 47.5028 119.353 47.728C119.931 47.9484 120.373 48.2006 120.678 48.484C120.99 48.7632 121.23 48.9926 121.399 49.1726H121.633V47.5254H123.854V58.1924C123.854 59.0835 123.562 59.808 122.977 60.3662C122.399 60.9288 121.62 61.3405 120.639 61.6017C119.665 61.8672 118.58 62 117.386 62ZM117.308 56.3019C118.23 56.3019 119.009 56.1557 119.645 55.8631C120.282 55.5705 120.766 55.1499 121.097 54.6007C121.428 54.0517 121.594 53.3943 121.594 52.6294C121.594 51.8823 121.431 51.2229 121.107 50.6513C120.782 50.0795 120.302 49.6318 119.665 49.3077C119.029 48.9837 118.243 48.8218 117.308 48.8218C116.333 48.8218 115.522 48.9926 114.872 49.3348C114.229 49.6767 113.745 50.1359 113.421 50.7119C113.102 51.2882 112.943 51.9272 112.943 52.6294C112.943 53.3495 113.106 53.9864 113.43 54.5401C113.762 55.089 114.249 55.5212 114.892 55.8361C115.541 56.1468 116.346 56.3019 117.308 56.3019ZM142.284 47.5254V48.8755H134.53V47.5254H142.284ZM136.79 45.0408H139.089V54.9248C139.089 55.3748 139.184 55.7125 139.372 55.9374C139.567 56.1581 139.813 56.3067 140.112 56.383C140.417 56.4552 140.739 56.4911 141.076 56.4911C141.33 56.4911 141.537 56.4819 141.7 56.4641C141.862 56.4415 141.992 56.4234 142.09 56.41L142.557 57.8412C142.401 57.8819 142.184 57.9223 141.904 57.9627C141.625 58.0079 141.271 58.0305 140.843 58.0305C140.193 58.0305 139.557 57.9336 138.933 57.7399C138.316 57.5466 137.803 57.2516 137.394 56.8556C136.992 56.4596 136.79 55.96 136.79 55.357V45.0408ZM145.743 57.8953V47.5254H147.963V49.0918H148.119C148.392 48.5785 148.886 48.1623 149.6 47.8427C150.314 47.523 151.12 47.3632 152.016 47.3632C152.185 47.3632 152.396 47.3656 152.649 47.37C152.902 47.3745 153.094 47.3813 153.224 47.3903V49.0107C153.146 48.997 152.967 48.9768 152.688 48.9498C152.415 48.9183 152.127 48.9026 151.821 48.9026C151.094 48.9026 150.444 49.0083 149.873 49.2198C149.308 49.4269 148.86 49.715 148.529 50.0842C148.204 50.4487 148.041 50.8649 148.041 51.3331V57.8953H145.743ZM165.379 53.6554V47.5254H167.678V57.8953H165.379V56.14H165.223C164.872 56.6667 164.327 57.1143 163.586 57.4836C162.846 57.8481 161.911 58.0305 160.781 58.0305C159.846 58.0305 159.014 57.8885 158.287 57.6051C157.56 57.3169 156.988 56.8847 156.573 56.3087C156.157 55.7283 155.949 54.9966 155.949 54.1147V47.5254H158.248V54.0066C158.248 54.7629 158.553 55.3659 159.164 55.8159C159.78 56.266 160.566 56.4911 161.521 56.4911C162.092 56.4911 162.674 56.3898 163.265 56.1872C163.862 55.9846 164.362 55.6742 164.765 55.2557C165.174 54.8371 165.379 54.3036 165.379 53.6554ZM182.487 49.8478L180.422 50.253C180.292 50.0144 180.1 49.7824 179.847 49.5576C179.6 49.3279 179.262 49.139 178.834 48.9905C178.405 48.842 177.856 48.7677 177.187 48.7677C176.272 48.7677 175.509 48.9138 174.898 49.2064C174.294 49.4946 173.993 49.8615 173.993 50.307C173.993 50.703 174.2 51.0158 174.616 51.2454C175.031 51.4748 175.681 51.6661 176.564 51.819L178.785 52.1972C180.123 52.4224 181.12 52.7667 181.776 53.2301C182.432 53.6893 182.759 54.281 182.759 55.0058C182.759 55.6 182.513 56.1311 182.019 56.599C181.532 57.0671 180.85 57.4363 179.973 57.7064C179.097 57.9764 178.077 58.1113 176.915 58.1113C175.389 58.1113 174.125 57.8819 173.125 57.4227C172.125 56.9637 171.492 56.293 171.226 55.4107L173.408 55.0329C173.616 55.5908 174.009 56.0096 174.587 56.2885C175.171 56.5675 175.934 56.7071 176.876 56.7071C177.947 56.7071 178.798 56.5496 179.428 56.2345C180.064 55.9148 180.383 55.5322 180.383 55.0866C180.383 54.7266 180.201 54.4251 179.837 54.1821C179.474 53.9347 178.915 53.7499 178.162 53.6284L175.668 53.2235C174.298 52.9983 173.291 52.6496 172.648 52.177C172.011 51.6999 171.693 51.1034 171.693 50.3878C171.693 49.8029 171.93 49.2852 172.404 48.8351C172.885 48.3851 173.538 48.0316 174.362 47.7752C175.194 47.5186 176.136 47.3903 177.187 47.3903C178.668 47.3903 179.831 47.6154 180.675 48.0655C181.525 48.5155 182.13 49.1096 182.487 49.8478ZM192.727 47.5254V48.8755H184.973V47.5254H192.727ZM187.233 45.0408H189.532V54.9248C189.532 55.3748 189.626 55.7125 189.815 55.9374C190.01 56.1581 190.256 56.3067 190.555 56.383C190.86 56.4552 191.182 56.4911 191.52 56.4911C191.773 56.4911 191.98 56.4819 192.143 56.4641C192.305 56.4415 192.435 56.4234 192.532 56.41L193 57.8412C192.844 57.8819 192.627 57.9223 192.348 57.9627C192.068 58.0079 191.714 58.0305 191.286 58.0305C190.636 58.0305 190 57.9336 189.376 57.7399C188.759 57.5466 188.246 57.2516 187.837 56.8556C187.434 56.4596 187.233 55.96 187.233 55.357V45.0408Z" fill="#F8F4E3"/>
<path d="M0 33.8582H187.784V36.4965H0V33.8582Z" fill="#F8F4E3"/>
</svg>
